<svg width="40" height="41" viewBox="0 0 40 41" fill="none" xmlns="http://www.w3.org/2000/svg">
<path d="M30.1408 7.6875C27.1008 7.7807 27.1016 12.1543 30.1408 12.2467C33.1808 12.1535 33.18 7.7799 30.1408 7.6875ZM20 10.3267C14.612 10.3267 10.2444 14.7059 10.2444 20.1079C10.7584 33.0827 29.2432 33.0791 29.7552 20.1079C29.7556 14.7059 25.3876 10.3267 20 10.3267ZM20 26.4571C16.5028 26.4571 13.6676 23.6143 13.6676 20.1079C14.0012 11.6859 26.0004 11.6879 26.3328 20.1079C26.3324 23.6147 23.4972 26.4571 20 26.4571Z" fill="white"/>
<path d="M38.8832 12.2752C38.7424 5.60836 34.5008 1.36436 27.8324 1.22476C26.2312 1.07036 13.7696 1.06756 12.1672 1.22476C5.50039 1.36556 1.25639 5.60716 1.11679 12.2756C0.962389 13.8744 0.959189 26.34 1.11679 27.9408C1.24119 34.586 5.52119 38.8672 12.1672 38.9912C13.7684 39.1472 26.23 39.1472 27.8324 38.9912C29.8544 38.8988 31.2356 38.5776 32.444 38.108C36.6788 36.4164 38.748 32.6536 38.8832 27.9404C39.0376 26.3392 39.0404 13.8776 38.8832 12.2752ZM27.6764 35.5716C26.1008 35.722 13.9 35.7244 12.3232 35.5716C10.4712 35.4872 9.46519 35.1776 8.79559 34.9176C3.01599 32.2368 4.80799 26.8156 4.53559 19.3744C4.54159 17.646 4.53199 14.16 4.53599 12.4316C4.76679 7.27876 7.19359 4.89316 12.3232 4.64436C13.9008 4.49396 26.0984 4.49156 27.6764 4.64436C32.8308 4.87516 35.214 7.30196 35.4636 12.4312C35.5656 13.6628 35.6396 20.386 35.4636 23.7884C35.6536 30.1788 35.3624 35.1968 27.6764 35.5716Z" fill="white"/>
</svg>
