<svg width="40" height="41" viewBox="0 0 40 41" fill="none" xmlns="http://www.w3.org/2000/svg">
<path d="M36.1916 1.11314C30.3472 1.09674 8.7908 1.12434 3.8084 1.11314C2.258 1.11314 1 2.33274 1 3.83474V36.3871C1 37.8895 2.258 39.1079 3.8084 39.1079H36.1916C37.7428 39.1079 39 37.8895 39 36.3867V3.83474C39 2.33274 37.7428 1.11314 36.1916 1.11314Z" fill="white"/>
<path d="M21.3812 32.9099C21.3812 32.9099 21.3812 23.3587 21.3812 23.3583C21.3256 21.6031 22.3748 19.9651 24.486 19.8915C26.5432 19.8915 27.3664 21.4599 27.3664 23.7595V32.9095H33.052V23.1019C33.052 17.8479 30.2472 15.4031 26.506 15.4031C23.4388 15.4031 22.0916 17.1171 21.3432 18.2847L21.3812 15.8047H15.6956C15.7696 17.4095 15.6952 32.9099 15.6952 32.9099H21.3812ZM12.548 25.4923V15.8043H6.86161V32.9095H12.5484C12.5472 31.1135 12.5504 27.2631 12.548 25.4923ZM9.70601 13.4695C11.6884 13.4695 12.9228 12.1559 12.9228 10.5147C12.9064 6.55588 6.52121 6.59988 6.52641 10.5143C6.52201 12.1683 7.79041 13.4899 9.70601 13.4695Z" fill="#292929"/>
</svg>
