<svg width="73" height="28" viewBox="0 0 73 28" fill="none" xmlns="http://www.w3.org/2000/svg">
<path d="M20.3489 12.37C19.9699 12.7513 19.6797 13.2115 19.4989 13.7177C19.3181 14.224 19.2512 14.7639 19.3029 15.299L19.2849 15.281C19.3381 15.9109 19.2531 16.5447 19.036 17.1384C18.8189 17.732 18.4749 18.2711 18.028 18.7181C17.581 19.165 17.0419 19.5091 16.4482 19.7261C15.8546 19.9432 15.2207 20.0282 14.5909 19.975L14.6089 19.993C13.8555 19.9229 13.0988 20.0868 12.4419 20.4625C11.7851 20.8382 11.2601 21.4073 10.9386 22.0923C10.6171 22.7773 10.5146 23.5447 10.6452 24.2901C10.7759 25.0354 11.1332 25.7223 11.6685 26.2571C12.2038 26.7919 12.891 27.1486 13.6364 27.2785C14.3819 27.4085 15.1492 27.3053 15.8339 26.9832C16.5186 26.661 17.0872 26.1356 17.4623 25.4784C17.8374 24.8212 18.0007 24.0644 17.9299 23.311L17.9489 23.329C17.8957 22.6992 17.9806 22.0653 18.1977 21.4716C18.4148 20.878 18.7589 20.3389 19.2058 19.8919C19.6528 19.445 20.1919 19.1009 20.7855 18.8839C21.3792 18.6668 22.013 18.5818 22.6429 18.635L22.6239 18.617C23.2393 18.6723 23.8588 18.5714 24.4249 18.3236C24.9909 18.0758 25.4853 17.6891 25.8621 17.1994C26.2389 16.7097 26.4861 16.1327 26.5805 15.5221C26.675 14.9114 26.6138 14.2868 26.4026 13.706C26.1914 13.1253 25.837 12.6073 25.3723 12.2C24.9076 11.7927 24.3476 11.5093 23.7442 11.3761C23.1408 11.2429 22.5135 11.2641 21.9205 11.4378C21.3275 11.6116 20.788 11.9322 20.3519 12.37H20.3489Z" fill="white"/>
<path d="M12.9719 17.635L12.9529 17.617C13.4882 17.6709 14.0288 17.6052 14.5357 17.4246C15.0425 17.244 15.5029 16.9531 15.8835 16.5728C16.264 16.1925 16.5554 15.7323 16.7363 15.2256C16.9173 14.7189 16.9834 14.1784 16.9299 13.643L16.9489 13.661C16.8957 13.0311 16.9807 12.3973 17.1977 11.8036C17.4148 11.21 17.7589 10.6709 18.2058 10.2239C18.6528 9.77702 19.1919 9.43292 19.7855 9.21592C20.3792 8.99878 21.013 8.91385 21.6429 8.96702L21.6239 8.94902C22.3774 9.01982 23.1343 8.85638 23.7915 8.48112C24.4488 8.10586 24.9742 7.53699 25.2962 6.85212C25.6182 6.16726 25.7211 5.39973 25.5909 4.65422C25.4607 3.90871 25.1037 3.22153 24.5685 2.68639C24.0334 2.15126 23.3462 1.79422 22.6007 1.664C21.8552 1.53377 21.0877 1.63668 20.4028 1.9587C19.7179 2.28071 19.1491 2.80616 18.7738 3.46337C18.3985 4.12057 18.2351 4.87754 18.3059 5.63102L18.2879 5.61202C18.3412 6.24191 18.2564 6.87585 18.0394 7.46957C17.8224 8.06329 17.4783 8.60248 17.0314 9.04952C16.5844 9.49642 16.0452 9.84052 15.4515 10.0575C14.8577 10.2745 14.2238 10.3593 13.5939 10.306L13.6119 10.325C13.0766 10.2711 12.5359 10.3368 12.0291 10.5174C11.5223 10.6979 11.0619 10.9889 10.6813 11.3692C10.3007 11.7495 10.0094 12.2097 9.8284 12.7164C9.6475 13.2231 9.5814 13.7636 9.6349 14.299L9.6169 14.281C9.6699 14.9108 9.5848 15.5446 9.3677 16.1382C9.1505 16.7317 8.8065 17.2708 8.3596 17.7177C7.91266 18.1646 7.37362 18.5086 6.78006 18.7258C6.1865 18.9429 5.55271 19.028 4.9229 18.975L4.9409 18.993C4.18742 18.9222 3.43045 19.0856 2.77324 19.4609C2.11604 19.8362 1.59059 20.405 1.26858 21.0899C0.946563 21.7748 0.843643 22.5423 0.973873 23.2878C1.1041 24.0333 1.46114 24.7205 1.99627 25.2556C2.53141 25.7908 3.21859 26.1478 3.9641 26.278C4.70961 26.4082 5.47714 26.3053 6.16201 25.9833C6.84687 25.6613 7.41574 25.1359 7.791 24.4787C8.1663 23.8214 8.3297 23.0645 8.2589 22.311L8.2779 22.329C8.2247 21.6991 8.3097 21.0653 8.5268 20.4716C8.7438 19.878 9.0879 19.3389 9.5348 18.8919C9.9818 18.445 10.5209 18.1009 11.1145 17.8839C11.7082 17.6668 12.342 17.5818 12.9719 17.635Z" fill="white"/>
<path d="M6.2699 15.628C6.64892 15.2468 6.9391 14.7866 7.11974 14.2803C7.30038 13.774 7.36702 13.234 7.3149 12.699L7.33389 12.717C7.28069 12.087 7.36565 11.4529 7.58286 10.8591C7.80007 10.2653 8.1443 9.72606 8.5915 9.27906C9.0387 8.83208 9.578 8.48809 10.1719 8.27114C10.7658 8.05418 11.3999 7.96948 12.0299 8.02296L12.0109 8.00496C12.7641 8.07553 13.5208 7.91204 14.1777 7.5368C14.8346 7.16157 15.3597 6.59284 15.6816 5.90819C16.0034 5.22353 16.1062 4.45628 15.976 3.71105C15.8458 2.96582 15.4888 2.2789 14.9539 1.74396C14.419 1.20902 13.732 0.852103 12.9868 0.721883C12.2416 0.591653 11.4743 0.694473 10.7897 1.01629C10.105 1.33811 9.5363 1.86328 9.1611 2.52018C8.7858 3.17708 8.6223 3.93374 8.6929 4.68696L8.6749 4.66896C8.7281 5.29881 8.6431 5.93268 8.426 6.52632C8.2089 7.11996 7.86492 7.65907 7.41796 8.10603C6.97101 8.55299 6.43189 8.89702 5.83825 9.11406C5.24461 9.33116 4.61075 9.41616 3.9809 9.36296L3.9989 9.38096C3.38347 9.32576 2.76406 9.42686 2.19808 9.67476C1.6321 9.92266 1.13785 10.3095 0.761139 10.7993C0.384429 11.289 0.137449 11.866 0.0430689 12.4766C-0.0513011 13.0873 0.0099889 13.7119 0.221259 14.2925C0.432529 14.8732 0.786959 15.3911 1.25169 15.7983C1.71642 16.2056 2.27642 16.4889 2.8798 16.6221C3.48317 16.7552 4.1104 16.7339 4.70337 16.5602C5.29633 16.3864 5.83583 16.0658 6.27189 15.628H6.2699Z" fill="white"/>
<path d="M39.0837 18.1V21H37.3437C36.1037 21 35.137 20.7 34.4437 20.1C33.7503 19.4867 33.4037 18.4933 33.4037 17.12V12.68H32.0437V9.84H33.4037V7.12H36.8237V9.84H39.0637V12.68H36.8237V17.16C36.8237 17.4933 36.9037 17.7333 37.0637 17.88C37.2237 18.0267 37.4903 18.1 37.8637 18.1H39.0837ZM42.7087 8.68C42.1087 8.68 41.6153 8.50667 41.2287 8.16C40.8553 7.8 40.6687 7.36 40.6687 6.84C40.6687 6.30667 40.8553 5.86667 41.2287 5.52C41.6153 5.16 42.1087 4.98 42.7087 4.98C43.2953 4.98 43.7753 5.16 44.1487 5.52C44.5353 5.86667 44.7287 6.30667 44.7287 6.84C44.7287 7.36 44.5353 7.8 44.1487 8.16C43.7753 8.50667 43.2953 8.68 42.7087 8.68ZM44.4087 9.84V21H40.9887V9.84H44.4087ZM46.2071 15.4C46.2071 14.2533 46.4204 13.2467 46.8471 12.38C47.2871 11.5133 47.8804 10.8467 48.6271 10.38C49.3738 9.91333 50.2071 9.68 51.1271 9.68C51.9138 9.68 52.6004 9.84 53.1871 10.16C53.7871 10.48 54.2471 10.9 54.5671 11.42V9.84H57.9871V21H54.5671V19.42C54.2338 19.94 53.7671 20.36 53.1671 20.68C52.5804 21 51.8938 21.16 51.1071 21.16C50.2004 21.16 49.3738 20.9267 48.6271 20.46C47.8804 19.98 47.2871 19.3067 46.8471 18.44C46.4204 17.56 46.2071 16.5467 46.2071 15.4ZM54.5671 15.42C54.5671 14.5667 54.3271 13.8933 53.8471 13.4C53.3804 12.9067 52.8071 12.66 52.1271 12.66C51.4471 12.66 50.8671 12.9067 50.3871 13.4C49.9204 13.88 49.6871 14.5467 49.6871 15.4C49.6871 16.2533 49.9204 16.9333 50.3871 17.44C50.8671 17.9333 51.4471 18.18 52.1271 18.18C52.8071 18.18 53.3804 17.9333 53.8471 17.44C54.3271 16.9467 54.5671 16.2733 54.5671 15.42ZM67.2613 9.72C68.568 9.72 69.608 10.1467 70.3813 11C71.168 11.84 71.5613 13 71.5613 14.48V21H68.1613V14.94C68.1613 14.1933 67.968 13.6133 67.5813 13.2C67.1947 12.7867 66.6747 12.58 66.0213 12.58C65.368 12.58 64.848 12.7867 64.4613 13.2C64.0747 13.6133 63.8813 14.1933 63.8813 14.94V21H60.4613V9.84H63.8813V11.32C64.228 10.8267 64.6947 10.44 65.2813 10.16C65.868 9.86667 66.528 9.72 67.2613 9.72Z" fill="white"/>
</svg>
