<svg width="40" height="41" viewBox="0 0 40 41" fill="none" xmlns="http://www.w3.org/2000/svg">
<path d="M38.5684 8.55667C37.2016 9.16387 35.7332 9.57227 34.192 9.75667C35.766 8.81387 36.9728 7.32147 37.5412 5.54187C36.07 6.41467 34.4392 7.04867 32.702 7.39147C31.3124 5.91027 29.3328 4.98467 27.1416 4.98467C22.2984 4.91987 18.5748 9.65147 19.7208 14.3387C13.3892 14.0215 7.77601 10.9879 4.01681 6.37707C1.96521 9.72267 3.13001 14.5071 6.37521 16.5495C5.12681 16.5095 3.95121 16.1667 2.92441 15.5967C2.87681 19.3187 5.51721 22.4611 9.03601 23.1623C7.95481 23.4639 6.70921 23.5111 5.59521 23.2935C6.56521 26.3199 9.37881 28.5239 12.7124 28.5851C9.69841 30.9935 5.47881 32.2491 1.43201 31.7403C17.7048 41.7551 35.694 28.6343 34.7652 12.4999C36.2544 11.4247 37.5472 10.0835 38.5684 8.55667Z" fill="white"/>
</svg>
